<?xml version="1.0" encoding="UTF-8"?>
<svg id="Layer_2" data-name="Layer 2" xmlns="http://www.w3.org/2000/svg" viewBox="0 0 149.02 101">
  <g id="Layer_1-2" data-name="Layer 1">
    <g>
      <path d="m84.22,88.98c.16.33.29.61.43.89-.04.19.13.25.23.35.19.2.44.29.71.37.17.05.33.05.49.06.13.01.26.05.39.06.27.02.51-.07.73-.23.15-.1.31-.19.48-.25.07-.03.14-.06.2-.09.14-.08.23-.22.36-.29.14-.08.23-.19.32-.32.07-.1.21-.16.3-.25.35-.36.71-.71,1.02-1.1.19-.25.4-.49.58-.76.12-.19.3-.33.43-.51.16-.23.37-.42.56-.63.04-.05.06-.11.1-.16.22-.31.44-.62.66-.93.07-.1.14-.2.22-.29.22-.25.44-.48.66-.73.05-.06.08-.13.12-.19.07-.12.13-.26.23-.35.3-.28.51-.63.74-.97.04-.06.09-.13.14-.19.44-.52.87-1.05,1.25-1.62.1-.16.22-.31.34-.44.37-.41.65-.88.97-1.32.11-.15.19-.33.33-.45.28-.25.42-.59.64-.88.03-.04.05-.09.09-.13.19-.22.39-.43.58-.66.22-.26.44-.53.66-.8.07-.09.11-.21.17-.31.2-.28.39-.57.66-.8.27-.23.45-.53.66-.8.05-.07.09-.15.15-.21.24-.29.5-.57.73-.87.13-.18.21-.4.32-.59.12-.2.24-.39.41-.56.31-.31.61-.64.9-.97.08-.09.13-.2.19-.3.09-.16.17-.32.28-.47.1-.14.23-.24.34-.37.41-.49.87-.94,1.18-1.51.02-.04.06-.07.09-.1.36-.38.72-.76,1.07-1.14.26-.28.54-.55.77-.85.17-.22.36-.4.54-.6.11-.12.21-.26.32-.38.07-.08.17-.14.19-.26.14-.02.2-.14.29-.22.09-.08.17-.16.24-.24.92-1.07,1.98-2,2.95-3.02.2-.21.43-.38.67-.54.04-.02.07-.06.1-.1.29-.33.65-.57,1.01-.81.13-.08.22-.21.36-.3.17-.1.32-.25.46-.39.26-.26.54-.5.85-.71.05-.03.08-.08.12-.12.4-.44.91-.73,1.38-1.09.04-.03.1-.04.14-.08.21-.23.5-.35.74-.55.43-.36.92-.63,1.36-.98.25-.2.54-.35.81-.53.4-.26.82-.5,1.18-.83.22-.2.5-.33.77-.47.27-.14.53-.3.76-.51.13-.12.29-.24.45-.31.29-.13.54-.3.81-.46.17-.11.36-.19.53-.3.37-.22.74-.43,1.13-.6.24-.11.47-.25.73-.33.04-.01.09-.02.12-.05.18-.23.48-.19.69-.34.29.03.5-.18.77-.23.27-.05.53-.16.79-.25.26-.09.54-.15.81-.22.12-.03.24-.06.35-.15.13-.1.32-.12.48-.18.21-.08.45-.06.73-.09-.06.14-.1.24-.16.34-.06.1-.15.2-.19.25-.15.06-.25.09-.35.13-.3.14-.58.31-.89.43-.13.05-.28-.04-.38.09-.25.03-.45.18-.68.27-.3.12-.58.26-.88.38-.24.1-.48.17-.72.26-.07.02-.17.02-.21.07-.18.21-.45.27-.66.42-.07.05-.16.05-.23.1-.06.05-.13.07-.2.1-.21.06-.37.22-.55.34-.43.28-.9.52-1.3.84-.32.25-.72.35-1.03.61-.13.11-.3.19-.42.31-.29.31-.64.55-1,.77-.1.06-.17.14-.26.2-.09.07-.18.13-.26.2-.31.24-.61.47-.91.71-.06.05-.14.06-.2.09-.2.1-.39.22-.58.34-.06.04-.14.08-.18.13-.2.24-.52.33-.75.52-.23.2-.45.41-.68.61-.22.18-.46.34-.68.52-.28.23-.6.41-.86.67-.25.24-.51.46-.79.67-.19.14-.36.3-.53.46-.19.18-.39.36-.63.49-.07.04-.12.11-.17.17-.11.11-.23.23-.34.34-.11.11-.23.2-.31.32-.09.12-.27.15-.32.31-.49.3-.83.76-1.27,1.11-.54.45-.99.97-1.5,1.45-.1.09-.16.22-.25.31-.08.09-.19.14-.28.22-.1.09-.2.19-.29.29-.08.09-.13.24-.23.28-.14.06-.21.17-.31.26-.2.19-.4.38-.52.64-.07.17-.23.3-.36.44-.36.41-.75.81-1.09,1.24-.25.31-.49.62-.73.94-.31.41-.68.78-1.02,1.16-.32.36-.62.75-.91,1.13-.32.42-.56.9-.94,1.27-.16.15-.29.34-.45.5-.14.16-.29.31-.41.48-.19.25-.35.52-.53.78-.2.29-.37.61-.63.84-.24.21-.4.45-.59.69-.03.04-.06.09-.09.14-.24.43-.51.84-.83,1.21-.34.38-.66.78-.97,1.18-.22.28-.41.59-.6.89-.08.12-.14.24-.23.35-.23.29-.47.56-.7.85-.09.12-.17.25-.24.38-.13.24-.32.44-.46.67-.24.39-.59.69-.86,1.06-.1.13-.15.29-.26.41-.2.23-.35.5-.53.75-.21.28-.43.56-.66.82-.3.33-.53.71-.81,1.05-.25.3-.5.6-.7.95-.15.26-.4.48-.57.73-.29.42-.68.76-.98,1.18-.04.06-.1.1-.15.15-.43.43-.86.86-1.29,1.29-.15.15-.25.36-.46.46-.07.03-.13.08-.19.12-.35.19-.7.37-1.04.56-.21.12-.44.19-.69.18-.3-.01-.6,0-.9,0-.2,0-.37-.08-.56-.16-.31-.14-.57-.38-.91-.46-.02,0-.04-.02-.05-.04-.35-.35-.71-.67-.9-1.14-.15-.38-.23-.78-.41-1.14.04-.19-.05-.37-.07-.56-.02-.21-.04-.42-.07-.63-.02-.2-.06-.4-.13-.6-.05-.14-.03-.3-.07-.45-.06-.29-.06-.6-.08-.9-.02-.23-.05-.46-.07-.7-.01-.23.04-.47-.01-.69-.05-.23,0-.48-.07-.7-.18-.68-.07-1.37-.14-2.05-.06-.55,0-1.09-.07-1.63-.07-.49-.04-.97-.05-1.46-.01-.48,0-.97,0-1.45v-.48c0-.53-.05-1.06.01-1.58.07-.52.04-1.04.05-1.56.01-.53-.02-1.06.01-1.59.01-.21.02-.43.12-.64.02-.05,0-.11,0-.17,0-.23.01-.46,0-.69-.03-.41.12-.8.07-1.21.12-.25.05-.51.07-.76.01-.14.02-.29.07-.42.1-.24.07-.49.06-.73-.01-.22.05-.42.09-.62.02-.1.05-.21.05-.32,0-.15,0-.3.06-.46.05-.13-.05-.29.07-.42.01-.01,0-.04,0-.07.02-.42.03-.83.07-1.25.02-.26.06-.53.14-.77.09-.26.12-.52.19-.78.07-.3.22-.59.22-.91.13-.1.06-.27.13-.4.06-.12.01-.29.01-.44.12-.11.15-.25.14-.4-.02-.22.15-.79.25-1.1.09-.28.25-.55.24-.87.16-.17-.03-.43.14-.6,0-.21.17-.38.14-.6.15-.22.18-.5.3-.74.15-.27.18-.57.25-.86,0-.03,0-.06-.01-.12-.51.09-.95.33-1.44.56-.27-.02-.56.02-.84.18-.11.06-.25.09-.37.09-.12,0-.21.04-.32.07-.1.03-.21.06-.32.07-.1.01-.19.02-.28.07-.09.05-.21-.02-.32.07-.06.05-.2-.02-.28.08-.21-.03-.42.03-.63.07-.15.03-.3.05-.45.07-.15.02-.31-.03-.46.06-.05.03-.13,0-.2,0-.91,0-1.82,0-2.73,0-.16,0-.33-.05-.49-.06-.17-.01-.36.05-.51-.01-.44-.17-.93-.08-1.35-.33-.02-.01-.04,0-.07,0-.36.05-.71-.11-1.07-.07-.17.02-.3-.07-.45-.08-.14,0-.3.06-.42-.06,0,0-.02,0-.03,0-.36-.03-.71-.05-1.07-.08-.12.27-.22.54-.35.78-.11.2-.09.42-.15.63-.05.17-.04.35-.09.52-.06.21-.18.39-.33.56-.28.31-.64.5-1.03.72-.14-.02-.33-.05-.54-.09-.13-.16-.28-.34-.41-.5-.03-.12-.08-.21-.08-.3-.03-.34.09-.64.3-.91.05-.07.1-.14.15-.22.1-.17.2-.34.34-.48.11-.11.2-.24.3-.37v-.44c-.42-.05-.83,0-1.23.16-.14.05-.3-.04-.41.1-.16-.05-.25.07-.36.14-.28.18-.59.33-.83.58-.39.42-.7.89-.93,1.41-.08.18-.15.39-.31.53,0,.22-.17.37-.22.56-.04.13-.14.25-.16.38-.02.14-.22.18-.17.35,0,.01-.02.04-.03.05-.31.33-.35.78-.52,1.17,0,0,0,.02,0,.03.02.24-.01.47-.21.64-.01.21-.16.37-.21.57-.01.04-.04.08-.07.14v.25s-.08.08-.13.12v.35c-.05.05-.12.09-.13.13-.03.24-.19.43-.3.64-.13.25-.25.5-.38.74-.13.23-.2.49-.3.74-.09.24-.2.47-.36.68-.15.19-.24.43-.36.65-.28.52-.66.95-1.09,1.34-.24.22-.5.41-.75.61-.04.03-.09.07-.14.07-.32.03-.57.23-.87.32-.26.07-.52.12-.78.2-.34.11-.69.05-1.04.07-.25,0-.51.03-.76,0-.22-.03-.43-.12-.64-.2-.21-.08-.43-.12-.62-.25-.17-.12-.38-.19-.56-.3-.2-.11-.4-.23-.57-.37-.19-.15-.35-.35-.56-.49-.16-.1-.3-.23-.43-.36-.13-.13-.24-.29-.37-.43-.13-.14-.24-.27-.33-.45-.08-.17-.25-.31-.39-.46-.3-.33-.5-.71-.66-1.11-.12-.28-.27-.55-.39-.84-.06-.16-.2-.28-.27-.44-.18-.44-.39-.87-.56-1.32-.14-.38-.34-.73-.5-1.1-.13-.3-.27-.6-.39-.91-.15-.38-.27-.76-.42-1.14-.16-.38-.34-.76-.51-1.13,0-.02-.04-.04-.03-.05.03-.15-.07-.28-.07-.42.01-.26-.03-.5-.14-.74-.12-.25-.12-.54-.28-.78-.09-.13-.16-.28-.24-.42-.12-.23-.19-.47-.25-.72-.04-.18-.14-.33-.17-.52-.04-.27-.14-.52-.18-.79-.04-.25-.15-.49-.23-.73-.06-.18-.13-.35-.1-.54.03-.25-.11-.46-.16-.69-.05-.24-.22-.44-.27-.68-.07-.28-.15-.56-.3-.81-.06-.1-.08-.25-.08-.38,0-.27-.11-.51-.17-.76,0-.03-.04-.06-.04-.09.03-.27-.11-.51-.18-.76-.02-.06-.03-.13-.03-.19,0-.16-.07-.29-.12-.44-.06-.21-.2-.38-.25-.59-.04-.16-.12-.31-.12-.47.02-.33-.13-.62-.17-.93-.03-.2-.17-.35-.2-.55-.03,0-.06,0-.1,0-.06.24.06.46.08.68.02.21.12.4.11.61-.02.35.05.68.19.99.04.1-.04.24.09.31.02.21.05.42.07.63.02.24.06.48.08.73.02.23.13.45.22.66.08.18.11.35.11.54,0,.16.05.32.08.48.01.06.06.13.05.18-.04.4.14.75.22,1.12.01.06.06.12.06.18,0,.38.14.72.24,1.08.05.18.1.35.12.54.02.19.05.38.12.57.08.2.09.42.17.62.08.2.06.43.18.62-.07.3.17.55.14.84.15.32.16.69.29,1.02.07.17.11.34.18.51.07.16.13.36.14.53.02.31.07.61.15.91.04.15-.07.32.07.46-.04.22.14.38.17.58,0,.05.04.1.04.16,0,.32.04.64.14.94.01.03,0,.07,0,.1-.03.4.09.78.24,1.14.01.03.04.06.04.09-.03.31.08.6.06.9-.01.3.04.58.16.83.14.3.2.6.2.92,0,.05.02.11.03.16.06.25.12.5.17.76.03.12.05.23.07.35.01.11,0,.21.06.32.05.09,0,.23.01.34.02.24.07.47.21.7,0,.15,0,.32,0,.49,0,.16-.05.34.07.49-.21.33.11.65-.02.97.08.11.14.21.22.33,0,0,0,.04,0,.07-.05.67.1,1.34.07,2.01.13.39,0,.79.08,1.18.1.51.03,1.02.06,1.53,0,.19.01.37-.06.56-.06.16.04.36-.07.52-.02.03,0,.09,0,.14.05.39-.05.77-.09,1.14-.04.33-.05.67-.18.99-.06.16-.02.37-.07.56-.07.25-.12.51-.16.77-.03.21-.14.42-.23.63-.09.21-.16.42-.25.62-.06.15-.19.26-.27.41-.2.37-.52.61-.87.83-.27.02-.46.22-.71.29-.1.03-.2.06-.3.1-.38.12-.78.09-1.17.09-.09,0-.18-.07-.27-.1-.25-.08-.49-.17-.76-.18-.11,0-.23-.05-.34-.09-.27-.1-.52-.25-.77-.39-.13-.07-.23-.21-.34-.32-.04-.04-.05-.11-.09-.13-.4-.26-.63-.7-.99-1-.27-.22-.46-.51-.65-.8-.13-.21-.25-.43-.42-.62-.09-.1-.15-.24-.19-.37-.17-.48-.43-.93-.67-1.38-.08-.15-.13-.31-.22-.46-.08-.14-.12-.33-.22-.46-.1-.12-.04-.24-.05-.29-.07-.13-.11-.21-.15-.28,0,0,0-.02,0-.03-.14-.29-.26-.58-.42-.86-.14-.25-.19-.54-.34-.79-.12-.21-.14-.47-.25-.69-.03-.06-.01-.13-.03-.19-.09-.28-.18-.57-.31-.84-.17-.34-.32-.7-.38-1.09-.02-.13-.07-.27-.14-.39-.15-.28-.3-.57-.35-.89-.02-.11-.11-.21-.16-.31-.11-.2-.16-.42-.18-.65,0-.08-.04-.15-.06-.22-.09-.31-.22-.6-.3-.91-.13-.08,0-.23-.11-.34-.06-.06-.07-.2-.09-.3-.03-.16-.13-.31-.2-.47-.1-.23-.08-.49-.2-.71-.03-.07-.06-.14-.11-.2-.04-.05-.06-.11-.11-.2-.03-.2.07-.46-.15-.68.11-.39-.07-.75-.22-1.1-.06-.15-.1-.3-.16-.45-.06-.15-.04-.31-.11-.47-.07-.14-.05-.33-.08-.55-.01,0-.07-.04-.08-.05-.04-.18-.07-.31-.1-.43-.07-.26-.08-.53-.2-.78-.04-.08-.05-.16-.09-.24-.07-.15-.14-.3-.12-.47,0-.11-.03-.21-.06-.32-.04-.13-.11-.26-.09-.42.01-.1-.01-.24-.08-.31-.21-.22-.25-.5-.33-.76-.08-.26-.15-.53-.14-.81,0-.11,0-.21-.06-.32-.06-.13-.09-.29-.08-.45,0-.12-.02-.24-.07-.35-.14-.34-.15-.72-.34-1.03.03-.33-.16-.61-.15-.94,0-.19-.08-.38-.13-.56-.02-.1-.06-.21-.07-.32,0-.1-.06-.2-.06-.28-.02-.33-.19-.62-.23-.94,0-.06-.04-.12-.05-.18-.02-.13.05-.27-.04-.4-.08-.11.04-.27-.09-.38-.03-.02,0-.11,0-.17,0-.2-.01-.39-.06-.59-.04-.18-.04-.36-.14-.53-.02-.04-.01-.09-.01-.13-.02-.22-.04-.44-.05-.65-.06-.01-.1-.02-.13-.03,0-.02-.03-.04-.03-.06,0-.12-.04-.24-.06-.35-.06-.28-.06-.58-.08-.87-.02-.25-.06-.5-.12-.74-.03-.12-.01-.25-.01-.37,0-.21-.03-.41-.18-.58-.07-.08-.12-.21-.1-.34.05-.36-.04-.72-.09-1.07-.05-.33-.06-.67-.19-.99,0-.02,0-.05,0-.07.04-.27-.07-.52-.14-.77-.1-.34-.21-.66-.21-1.02,0-.15-.08-.29-.07-.45.01-.15.03-.31-.06-.46-.03-.05,0-.14,0-.2-.02-.34-.04-.67-.07-1.01-.01-.13-.07-.25-.1-.37,0-.03-.03-.06-.03-.09-.02-.25-.03-.51-.07-.76-.04-.21-.08-.41-.06-.63.02-.2-.06-.4-.09-.59-.04-.28-.08-.56-.12-.84-.02-.1-.05-.19-.07-.28-.02-.1.04-.21-.06-.29-.01,0,0-.04,0-.07,0-.19.03-.38-.07-.56.05-.33-.08-.64-.07-.97,0-.13-.05-.26-.06-.39-.02-.13.04-.27-.07-.39-.02-.02,0-.07,0-.1.05-.35-.05-.69-.08-1.04-.02-.22-.04-.44-.06-.66,0-.08-.05-.16-.07-.25-.02-.08.03-.18-.05-.26-.02-.02-.02-.06-.02-.09-.02-.42-.04-.83-.07-1.25-.01-.16-.05-.33-.07-.49-.02-.16.01-.32-.06-.49-.06-.14-.03-.32-.06-.49-.04-.19-.08-.38-.15-.56-.06-.14-.1-.29-.07-.45-.15-.25.01-.55-.14-.81.05-.22-.08-.41-.07-.63,0-.21.01-.41,0-.62,0-.15.05-.31-.04-.46-.08-.13.05-.32-.09-.45-.02-.02,0-.09,0-.13-.02-.28,0-.57-.08-.83-.08-.29-.05-.61-.19-.88,0-.02,0-.05,0-.07.05-.39-.04-.77-.08-1.14-.04-.42-.01-.84-.07-1.25-.03-.26-.03-.51-.06-.77-.05-.36-.14-.71-.13-1.08-.12-.2-.08-.42-.06-.63.03-.49-.03-.98-.09-1.45-.05-.39-.01-.77-.06-1.15-.03-.2-.09-.4-.06-.59.13-.69.02-1.39.07-2.08.02-.29.06-.58.06-.87.13-.18.04-.4.08-.58.06-.23.3-.28.42-.44.13-.17.36-.12.55-.24.15.2.29.41.32.68.02.14.05.28.07.42.01.14-.04.29.01.41.1.26.03.51.06.77.14,1.28.04,2.56.07,3.83,0,.14.05.28.08.44.02.02.06.06.1.09.01.02.02.03.02.04.02.16.07.33.07.49-.04,1.52.11,3.04.07,4.56,0,.34-.12.67-.07,1.01.01.11,0,.21.07.32.05.08-.03.2.05.29.04.04.02.13.02.19,0,.2.01.39,0,.59-.02.35.12.69.07,1.04.11.21.04.44.07.66.04.27.1.53.16.8,0,.03.04.06.05.08,0,.13,0,.25,0,.38.01.12.05.23.06.35.03.36.03.72.08,1.07.04.26.07.52.14.77.03.11.04.21.06.32.02.15-.05.3.06.46.07.11-.05.29.08.42.01.01,0,.04,0,.07.02.42.05.83.07,1.25,0,.21.06.42.19.57.08.1.09.2.09.32-.04.01-.08.03-.14.05.01.08.02.16.04.25,0,.04.03.08.04.12.03.27.06.53.07.8.01.26,0,.53,0,.79,0,.18,0,.35.06.53.06.14.05.3.08.45.02.14.04.28.07.42.02.11.05.21.07.32.01.1-.02.2.07.28,0,0,0,.02,0,.03.02.34.06.67.06,1.01,0,.15.05.28.08.42.02.13-.06.28.07.39-.04.18.08.34.07.52-.02.32.01.64.14.94,0,.02,0,.05,0,.07.02.28.04.56.07.83.02.17.07.34.11.51,0,.03.02.06.02.09.02.29.04.58.07.87.01.12.05.23.07.35.01.11-.02.22.07.32.03.03,0,.11,0,.17,0,.11,0,.21.06.32.06.13.1.29.08.45-.04.34.12.65.14.98.11.07.05.19.07.28.06.33.06.68.18.99.05.12,0,.25.08.38.08.17.06.39.09.58.02.11.05.21.07.32.05.28.15.55.14.84.12.17.01.42.19.58.02.02.02.06.02.09-.02.27.04.52.13.77.04.11.03.23.06.35.06.21.06.44.08.66,0,.02,0,.05,0,.07.13.22.13.48.17.72,0,0,.02.02.02.02-.02.29.08.56.15.83.05.21.07.43.14.63.08.24.16.48.14.74.16.13.01.34.12.5.09.13.13.31.17.48.05.2.11.4.12.6,0,.16.02.31.08.45.1.23.12.48.19.71.04.13.08.27.11.4,0,.02.03.04.03.05-.01.41.18.77.28,1.16.04.16.19.28.14.46.14.13,0,.33.14.46-.05.23.11.43.08.59.08.24.19.42.19.61,0,.45.19.85.22,1.29.01.15.11.3.19.49.02.4.17.81.31,1.23.13.37.33.72.39,1.12.01.08.08.15.13.26-.05.39.11.76.27,1.13.09.2.13.43.21.64.1.26.13.54.2.81,0,.02,0,.05,0,.07.2.27.21.6.34.89.09.19.17.39.27.63.03.34.07.73.35,1.05-.05.18.17.24.15.42-.01.13.08.26.13.39.05.15.08.32.16.45.09.14-.03.32.11.44-.01.23.11.42.22.6.14.24.21.51.32.77.09.21.2.42.27.65.05.16.15.31.21.47.06.15.13.32.14.49.01.15.13.22.19.34.22.45.46.89.7,1.33.13.23.27.47.4.7.12.23.24.45.38.67.06.1.13.2.2.3.11.16.22.32.34.48.12.15.24.3.37.43.21.22.43.45.66.66.21.19.44.36.67.54.06.04.14.05.21.07.07.03.13.07.24.13.2-.07.38.12.6.17.24.06.46.05.7.02.13-.02.24-.08.37-.11.22-.05.4-.16.56-.32.28-.28.57-.57.72-.94.12-.31.29-.59.37-.92.07-.28.14-.56.21-.85.03-.12.06-.23.07-.35,0-.12.02-.23.06-.35.04-.11,0-.25.01-.38.01-.13.05-.26.07-.39.02-.13-.03-.27.06-.39.03-.04,0-.13,0-.2,0-1.12,0-2.23,0-3.35,0-.19-.04-.37-.07-.56-.02-.17-.01-.35-.05-.53-.06-.27-.03-.57-.01-.86,0-.16-.04-.3-.07-.45-.03-.15.03-.3-.06-.46-.07-.11,0-.27-.07-.42-.07-.19-.07-.41-.08-.62,0-.24-.08-.47-.14-.7-.07-.26-.11-.53-.15-.8-.06-.34-.04-.7-.19-1.02,0,0,0-.02,0-.03-.02-.25-.07-.51-.06-.76,0-.33-.12-.64-.07-.97-.11-.14-.05-.3-.07-.45-.02-.17-.06-.34-.14-.5-.13-.27-.2-.54-.22-.85-.01-.21-.03-.43-.11-.64-.02-.04-.01-.09-.01-.13,0-.31-.1-.6-.17-.89-.07-.26-.17-.52-.17-.79,0-.09-.04-.19-.07-.28-.07-.29-.08-.58-.14-.87-.01-.07-.04-.15-.07-.21-.06-.13-.09-.27-.06-.41l-.22-.22s0-.08,0-.13c.06-.39-.1-.74-.14-1.12-.11-.07-.05-.19-.07-.28-.02-.09-.06-.19-.07-.28-.02-.27-.12-.52-.18-.79-.04-.17-.13-.33-.1-.51.02-.1-.05-.17-.07-.25-.05-.21-.06-.44-.15-.63-.1-.19-.11-.39-.18-.58-.06-.14-.07-.33-.07-.48,0-.31-.14-.57-.19-.86,0-.02-.03-.04-.03-.06,0-.15.02-.32-.07-.45-.09-.13-.02-.31-.14-.43.02-.32-.11-.61-.2-.92-.06-.22-.06-.46-.08-.69-.01-.2-.09-.38-.12-.57-.03-.25-.12-.48-.15-.73-.02-.14-.11-.27-.08-.42.03-.13-.12-.24-.07-.38-.12-.29-.09-.62-.2-.92-.03-.08,0-.18,0-.27,0-.22-.02-.43-.1-.65-.07-.18-.1-.38-.1-.58,0-.4-.07-.78-.2-1.16-.03-.08,0-.18-.02-.27-.01-.08-.05-.16-.07-.25-.03-.14-.06-.28-.07-.42-.01-.14,0-.28,0-.41,0-.13-.1-.24-.08-.39.02-.13.04-.26-.04-.39-.07-.11-.03-.25-.08-.38-.08-.2-.06-.44-.08-.66-.01-.12-.05-.23-.07-.35-.02-.12.05-.25-.07-.35.02-.29-.05-.57-.14-.84,0-.02,0-.05,0-.07-.02-.4-.02-.81-.08-1.21-.04-.23-.04-.47-.06-.7-.01-.14-.11-.28-.06-.42.06-.17.07-.35.06-.52,0-.17,0-.34,0-.52.08-.08.16-.16.24-.24h.14l.13-.13h.56c.21.16.35.41.43.65.07.21.22.4.23.63,0,.05.05.09.08.14.04.06.12.13.11.19-.02.27.21.45.21.71,0,.02,0,.05,0,.07-.03.32.03.61.14.91.05.14.1.28.14.43.04.15.1.29.07.45,0,.02,0,.05.01.06.16.23.14.49.12.74-.02.34.13.65.15.98,0,.04.06.07.06.11,0,.11,0,.23,0,.29.08.23.15.4.2.59.06.22.09.44.14.67.06.28.1.57.27.84.03.09-.03.22.06.34.06.08-.04.25.08.34.08.4.19.79.39,1.15.07.12.01.27.08.42.07.14.05.32.07.5.08.06.16.13.2.16.02.11.02.17.05.22.09.17.13.35.11.54-.03.28.04.56.07.83,0,.04.04.07.06.11.15.33.21.67.29,1.02.06.25.11.5.22.73.08.16.2.31.19.51,0,.07.08.15.13.25-.02.21.05.42.13.64.07.22.06.46.08.63.08.24.14.42.21.6.02.07.07.14.06.21,0,.1.06.14.1.2.04.06.02.15.05.22.08.2.14.41.14.63,0,.02-.01.06,0,.07.18.18.11.44.2.64.09.19.18.39.25.59.11.34.24.68.37,1.02.11.29.23.57.34.86.17.46.42.88.51,1.38.05.28.24.54.37.81.19.38.34.78.48,1.18.06.18.09.37.16.55.03.06.07.12.08.17.04.12.19.14.21.29.01.12.09.24.13.36.03.08.03.19.08.24.15.13.2.31.27.48.06.16.19.28.21.47.01.11.1.21.15.31.07.14.16.27.2.44.03.15.16.28.24.41.04.06.09.12.12.19.14.29.33.54.56.76.12,0,.22.01.24.14.03.28.24.44.43.58.18.13.32.28.47.43.11.11.23.19.38.25.21.09.43.18.63.33.14.11.33.15.49.23.15.08.33.07.48.18.1.08.29-.05.41.08.32-.01.62.13.94.06.23-.05.47-.06.68-.2.28-.18.6-.27.87-.48.09-.07.17-.14.25-.21.18-.17.35-.37.54-.53.22-.19.33-.44.51-.66.07-.09.03-.25.17-.28v-.38c.13-.13.27-.27.36-.35.07-.16.09-.27.15-.35.16-.24.28-.5.38-.77.08-.23.2-.45.3-.67.15-.32.2-.68.38-.98-.04-.16.22-.21.15-.39.19-.36.33-.74.48-1.11.07-.18.16-.35.21-.54.04-.17.13-.33.21-.5.16-.31.27-.65.4-.97.03-.08.08-.15.11-.23.14-.34.28-.7.45-1.02.19-.36.33-.76.65-1.05.05-.04.06-.12.1-.16.16-.16.25-.38.48-.5.17-.08.28-.27.42-.4.24-.24.52-.42.85-.53.24-.08.47-.2.71-.28.03,0,.06-.06.08-.05.3.04.55-.13.84-.14.18,0,.35-.05.52-.06.18-.01.37,0,.55,0,.11,0,.2-.1.32-.07.06.02.12.04.21.06.14-.02.21-.17.32-.29.31-.32.52-.7.69-1.1.27-.62.58-1.21.89-1.8.1-.19.17-.4.3-.56.16-.2.24-.43.36-.65.11-.21.17-.44.26-.65.13-.31.33-.6.47-.91.15-.34.29-.68.47-1.01.3-.56.6-1.13.88-1.71.19-.39.35-.8.51-1.2.15-.37.27-.76.43-1.13.1-.24.22-.46.34-.69.16-.31.21-.67.41-.97.09-.13.16-.28.23-.42.13-.24.24-.5.32-.76.03-.09.09-.17.13-.25.21-.41.33-.85.55-1.26.29-.53.47-1.11.75-1.66.08-.15.25-.26.22-.46.11-.12.12-.31.27-.41.02-.28.22-.46.34-.69.21-.39.4-.78.61-1.16.17-.3.35-.59.54-.88.17-.26.34-.52.51-.77,0-.04,0-.06,0-.08.03-.27-.05-.51-.18-.75-.17-.32-.27-.67-.37-1.02-.03-.12-.13-.21-.14-.32-.02-.21-.18-.34-.22-.53-.04-.19-.14-.36-.2-.54-.22-.58-.54-1.11-.69-1.71-.03-.12-.16-.21-.14-.36-.21-.34-.29-.73-.45-1.09-.06-.12-.15-.22-.2-.3-.12-.35-.23-.67-.38-1.08v-.61c.14-.35.31-.64.6-.84h.78c.15.14.33.3.49.47.07.08.13.17.13.29,0,.22.07.42.17.62.01.03.03.06.04.09.03.21.04.42.07.63.01.08.03.18.07.25.13.22.1.5.25.73.07.11-.02.29.09.41,0,.52.18,1.01.29,1.5.06.29.18.57.28.85.06.17.07.36.16.52.09.17.09.35.12.54.03.19.13.38.21.58.11-.11.17-.19.21-.32.08-.24.23-.46.37-.67.14-.22.26-.44.39-.67.16-.28.35-.54.53-.81.02-.03.06-.05.07-.08.09-.33.36-.56.53-.85.11-.18.21-.37.3-.57.05-.1.2-.14.14-.27.2-.3.48-.53.62-.86.32-.29.51-.69.75-1.03.08-.11.14-.24.22-.36.13-.18.28-.34.38-.53.16-.29.38-.52.61-.75.08-.08.15-.17.19-.26.26-.51.64-.91,1-1.35.2-.25.4-.51.57-.79.15-.25.31-.5.53-.72.32-.31.59-.66.84-1.03.15-.22.35-.41.53-.61.03-.04.09-.05.1-.06.09-.14.15-.25.24-.35.35-.41.75-.78,1.06-1.22.38-.53.86-.96,1.3-1.42.17-.18.36-.36.54-.54.18-.18.37-.35.59-.48.22-.13.4-.32.59-.5.2-.19.42-.34.69-.42.14-.04.28-.06.4-.03.35.08.69.18.95.46.18.19.21.44.32.66.06.13.03.32.1.44.09.14.09.29.14.43.01.04.04.08.04.12-.01.17.02.33.07.49.1.28.07.58.07.87,0,.22-.04.44,0,.65.12.58.03,1.16.06,1.73.01.23-.05.43-.12.64-.01.03-.02.06-.02.09.05.31-.03.61-.08.9-.07.37-.04.74-.06,1.11,0,.07-.05.14-.07.21-.08.29-.14.58-.25.86-.04.11-.03.25-.02.37,0,.17,0,.34-.07.49-.1.2-.06.43-.13.64-.1.27-.1.57-.21.84-.03.06-.06.11-.08.17-.04.12-.1.24-.12.36-.02.13.02.29-.04.4-.08.13.02.27-.08.38-.08.1.03.27-.09.37.02.28-.12.52-.21.78-.03.08-.06.16-.07.25-.01.09,0,.18,0,.28-.16.08-.15.26-.2.4-.11.29-.19.58-.34.86-.15.27-.26.56-.38.84-.04.1-.09.2-.1.3-.03.36-.21.67-.3,1.02-.06.25-.1.51-.2.74-.03.07-.03.16-.07.21-.21.26-.27.59-.33.9-.08.42-.22.81-.37,1.19-.11.27-.2.54-.3.81-.11.31-.26.61-.33.94-.04.2-.15.38-.19.57-.04.19-.14.36-.16.56-.01.15-.12.29-.19.44-.27.58-.5,1.18-.67,1.79-.14.47-.34.92-.48,1.39-.14.48-.35.94-.48,1.42-.02.1-.03.2-.04.27-.1.17-.19.31-.26.47-.06.12-.07.27-.15.39-.09.15-.13.29-.14.46-.01.18-.08.35-.15.52-.05.14-.11.28-.13.43-.02.15-.15.26-.14.43,0,.07-.08.15-.12.22-.22.41-.36.84-.48,1.28-.08.29-.22.55-.33.83-.08.21-.15.42-.21.64-.08.31-.24.6-.3.91,0,.04-.06.07-.06.11-.03.16-.06.32-.07.49-.01.17,0,.35,0,.52-.01.2.04.39.1.58.06.22.08.44.18.65.04.08.06.16.09.24.1,0,.19,0,.29-.05.25-.14.52-.25.76-.41.19-.12.43-.19.64-.28.12-.05.23-.1.35-.15.23-.1.47-.2.7-.31.49-.25.95-.53,1.45-.75.41-.18.78-.43,1.2-.6.21-.08.38-.25.59-.33.3-.12.58-.27.86-.43.2-.11.37-.27.56-.41.03-.03.07-.06.11-.07.24-.03.44-.16.64-.28.25-.15.49-.3.74-.46.15-.09.29-.18.46-.27.05-.09.11-.2.18-.33.14.11.25.12.4.03.32-.19.65-.37.99-.53.34-.17.65-.38.96-.59.27-.18.54-.36.82-.52.15-.09.33-.11.47-.2.15-.1.34-.06.49-.16.06-.04.14-.05.22-.07.03.03.06.06.1.09,0,.02,0,.04-.01.05-.03.04-.1.09-.1.13,0,.23-.16.34-.33.45-.13.08-.26.18-.36.29-.15.18-.36.24-.54.37-.33.24-.7.42-1.05.63-.07.04-.12.09-.18.14-.47.42-.98.77-1.52,1.09-.39.24-.79.48-1.19.71,0,0-.02.02-.02.02-.3.38-.75.51-1.14.74-.29.17-.61.29-.85.55-.11.12-.29.17-.44.25-.54.28-1.08.56-1.62.84-.08.04-.15.09-.22.14-.52.37-1.08.66-1.63.97-.25.14-.52.23-.79.34-.27.11-.5.29-.79.35-.12.03-.22.12-.33.19-.1.06-.2.12-.31.18v.36c.06.05.14.11.2.16v.51c.06.09.12.18.21.3,0,.09,0,.21,0,.34-.02.29.1.52.23.77.07.13.14.27.12.43-.03.21.05.41.13.6.09.21.14.42.21.64.09.26.26.49.28.78.17.14.23.33.28.54.04.19.13.39.22.56.09.19,0,.36.05.53.04.07.11.14.13.22.15.52.35,1.03.61,1.51.09.16.13.35.15.52.03.28.17.51.26.76.07.2.15.4.25.59.05.1.05.19.06.29.1.06.11.17.16.27.05.1.09.19.13.29.13.42.19.86.47,1.22-.01.22.13.39.23.56.23.39.36.82.57,1.21.04.08.07.18.09.27.06.25.19.47.32.7.13.22.26.45.36.68.09.23.24.43.29.67.02.13.19.2.16.35.19.21.19.5.32.73.03.05.04.1.07.14.22.39.37.81.56,1.22.04.09.08.18.15.24.11.09,0,.24.11.34.07.06.07.2.1.3.03,0,.06.01.11.02v.28c.09.16.18.3.26.44.03.11.03.24.1.33.07.09.09.2.15.28.19.26.27.6.53.82.26.23.27.51.14.81.03.04.06.09.08.13-.03.03-.04.06-.06.06-.08,0-.15.01-.21.08-.17.23-.44.34-.65.51-.08.06-.18.12-.3.1-.06,0-.12,0-.19.04-.17.09-.37,0-.48-.11-.14-.16-.29-.33-.41-.51-.12-.18-.13-.35-.13-.53-.11-.19-.21-.38-.37-.54-.1-.11-.16-.28-.18-.44-.02-.17-.07-.31-.12-.47-.03-.09-.02-.2-.04-.32.14-.15.28-.31.42-.47v-.27c-.19-.11-.23-.33-.26-.5-.03-.2-.12-.38-.19-.55-.35-.8-.71-1.59-1.1-2.37-.2-.4-.4-.8-.52-1.23-.03-.09-.1-.17-.13-.25-.23-.55-.51-1.08-.76-1.62-.13-.29-.28-.57-.36-.89-.05-.19-.17-.37-.24-.55-.13-.33-.27-.65-.38-.98-.06-.18-.18-.34-.23-.53-.08-.31-.24-.59-.33-.9-.15-.49-.44-.93-.55-1.43-.05-.24-.12-.48-.19-.71-.04-.12-.07-.25-.13-.36-.11-.25-.2-.52-.29-.78-.08-.21-.17-.42-.28-.61-.12-.2-.2-.4-.21-.64,0-.1-.06-.2-.1-.3-.09-.21-.15-.42-.18-.65-.02-.19-.06-.39-.15-.56-.22-.43-.34-.89-.5-1.34-.02-.06-.03-.13-.03-.19-.01-.31-.15-.56-.32-.78.02-.1.04-.19.05-.29-.07-.06-.13-.11-.2-.18h-.2s-.09.11-.15.17c-.03.13-.06.26-.1.42-.07.07-.17.16-.27.25.05.29-.05.57-.09.85-.01.08-.09.15-.15.25-.03-.05-.05-.09-.1-.2.02-.13.05-.34.08-.56-.21.04-.11.24-.22.33.01.19-.1.35-.15.53-.04.12-.12.24-.12.36,0,.22-.09.4-.15.6-.08.23-.1.48-.2.71-.05.12-.02.28-.08.38-.08.12,0,.28-.07.35-.1.12.01.28-.13.37-.03.2-.05.39-.08.62-.17.1-.07.33-.2.48.04.24-.17.43-.14.67-.15.16,0,.4-.14.56.03.26-.14.47-.17.73-.02.19-.11.37-.11.57,0,.14-.05.28-.06.42-.01.15.01.3,0,.45-.02.15-.05.3-.11.44-.07.15.05.32-.09.45-.03.03-.01.13,0,.2.03.25-.12.48-.07.73-.13.31-.1.66-.2.99-.06.19-.06.39-.07.59-.01.21,0,.41,0,.62,0,.15,0,.3-.06.46-.05.13.05.29-.07.42-.03.03,0,.11,0,.17,0,.25.01.51,0,.76,0,.17.04.35-.06.53-.07.14.05.33-.08.48-.01.01,0,.05,0,.07.05.25-.08.48-.07.73,0,.25,0,.51,0,.76,0,.38,0,.76,0,1.14,0,.23-.05.43-.12.64-.02.06-.02.13-.02.2,0,.6,0,1.2,0,1.79,0,.08-.02.15.04.23.04.04.05.15.02.19-.1.16-.06.33-.06.49,0,.59-.05,1.18,0,1.76.09.99.04,1.98.06,2.97.11.34.02.7.08,1.04.07.35,0,.7.07,1.04.05.29,0,.59.07.87.08.34.03.67.06,1.01.02.22.04.44.07.66.03.2.04.41.13.6.01.03,0,.07,0,.1.02.24.04.49.07.73.02.12.07.22.07.35,0,.11.09.22.06.34.13.09.04.24.06.29Zm-2.06-55.98c0,.24,0,.46,0,.68,0,.22.09.42.18.61.08.17.16.35.23.53.08.2.13.41.21.6.06.14.12.27.14.43.03.17.07.35.15.52.22.44.45.87.64,1.32.13.32.21.65.28.98.06.29.16.55.27.82.12.3.19.61.36.88.01.02,0,.05,0,.07.09.28.19.57.27.85.08.26.12.52.21.78.05.15.13.31.13.46,0,.19.05.36.14.53.06.1.09.21.14.32.18.42.25.88.47,1.29.06.11.04.26.09.38.07.18.07.38.13.57.08.28.25.54.22.84.14.13.03.3.09.45.09.22.18.43.24.66.08.29.22.56.23.87,0,.17.13.33.2.5.11-.1.19-.18.25-.24.09-.45.16-.87.31-1.28.07-.2.11-.42.2-.61.26-.53.36-1.11.61-1.65.12-.25.22-.51.34-.8-.03-.17.07-.35.14-.55.1-.28.28-.54.28-.85.14-.07.04-.23.11-.34.12-.19.19-.4.28-.61.08-.19.2-.36.23-.56.05-.29.18-.55.29-.81.13-.32.29-.61.37-.95.09-.41.25-.81.39-1.22.08-.24.12-.5.23-.73.12-.25.23-.5.31-.77.14-.43.28-.85.46-1.26.05-.12.09-.26.1-.41.03-.3.14-.59.23-.87.18-.52.42-1.02.62-1.54.07-.19.16-.37.18-.58.03-.2.09-.4.17-.58.17-.44.31-.88.32-1.33.03-.06.05-.1.06-.13.08-.18.16-.35.23-.53.07-.19.13-.38.19-.58.06-.22.12-.44.15-.67.03-.22.16-.42.19-.64.06-.43.25-.83.28-1.26.14-.2.14-.45.19-.68.06-.23.12-.46.14-.7.01-.18.11-.35.08-.52-.03-.2.06-.37.08-.56.02-.22.06-.45.14-.67.1-.26.16-.53.13-.81,0-.05-.02-.12,0-.13.14-.11.03-.27.1-.41.06-.13.02-.31.04-.47.01-.14.05-.28.07-.42.03-.31.05-.62.07-.94,0-.01,0-.03,0-.03.13-.17.05-.37.07-.56.02-.19.05-.37.07-.56.04-.43-.05-.85-.07-1.28,0-.21.02-.42,0-.62-.05-.36-.12-.73-.22-1.08-.06-.23-.16-.46-.39-.58-.14,0-.25.07-.34.17-.33.34-.69.64-1.06.93-.31.26-.58.57-.9.83-.17.14-.33.31-.46.5-.12.18-.33.27-.45.46-.19.29-.46.52-.64.81-.21.33-.48.6-.72.91-.19.25-.43.46-.62.71-.1.13-.22.25-.32.38-.13.16-.24.34-.35.51-.13.19-.25.38-.38.56-.19.25-.37.49-.57.73-.16.19-.29.41-.47.6-.07.07-.11.17-.17.24-.17.18-.24.41-.39.59-.17.2-.37.38-.56.57-.05.05-.1.12-.14.18-.29.43-.57.87-.86,1.3-.06.09-.13.18-.19.26-.07.09-.13.17-.19.26-.08.13-.15.27-.25.38-.19.21-.34.46-.48.7-.14.23-.22.49-.38.7-.1.13-.14.3-.26.41-.16.16-.24.36-.35.55-.22.4-.49.76-.72,1.15-.14.23-.28.46-.41.69-.21.39-.47.76-.59,1.2.06.04.13.08.21.13Zm-8.59,22.2c.35-.05.68.11,1.03.07.01,0,.03,0,.03,0,.13.1.28.06.42.07.14.01.28.05.42.06.19.02.37.03.56.06.31.05.62.04.94.07.48.05.96.02,1.45,0,.49-.01.97.07,1.46-.06.11-.03.25.02.33-.03.11-.08.24.02.35-.1.06-.06.2,0,.32-.05.18-.07.39-.09.58-.09.17,0,.32-.06.48-.1.15-.04.29-.15.44-.18.17-.03.34-.01.46-.01.15-.06.25-.1.35-.13.16-.05.33-.11.49-.15.18-.05.34-.11.53-.14.19-.03.37-.1.54-.2.17-.1.39-.04.55-.18.36-.06.5-.35.59-.64.06-.18.12-.37.15-.56.06-.43.24-.83.28-1.26.14-.21.05-.44.07-.66.02-.23-.06-.45-.15-.66-.07-.16-.14-.32-.12-.5,0-.07.01-.16-.02-.19-.1-.1,0-.24-.11-.34-.08-.07-.08-.22-.09-.34-.01-.11-.09-.22-.11-.33-.07-.35-.28-.67-.21-1.02-.3-.43-.29-.96-.55-1.42-.02-.2-.05-.43-.07-.66,0-.02-.03-.03-.04-.05-.1-.27-.24-.53-.29-.81-.08-.4-.21-.78-.35-1.17-.08-.23-.19-.46-.21-.71-.03-.24-.08-.46-.2-.68-.15-.27-.23-.56-.21-.82-.08-.2-.14-.34-.2-.49-.16-.38-.3-.77-.47-1.15-.09-.19-.19-.4-.15-.59-.05-.11-.11-.2-.13-.29-.11-.39-.29-.75-.39-1.15-.07-.31-.25-.59-.36-.88-.18-.49-.4-.97-.53-1.47-.05-.21-.24-.37-.18-.58-.07-.07-.12-.12-.17-.17-.21.13-.22.13-.29.35-.07.25-.23.46-.34.69-.09.18-.21.32-.3.5-.63,1.26-1.25,2.52-1.87,3.78-.24.48-.4.98-.66,1.45-.08.15-.1.33-.17.48-.12.26-.19.54-.34.79-.21.37-.39.76-.5,1.17-.09.31-.23.63-.41.89-.29.43-.72,1.48-.88,1.85-.02.04-.02.09-.04.12-.19.24-.29.52-.38.81-.04.13-.08.27-.14.39-.24.48-.49.95-.72,1.42-.13.27-.3.51-.4.8-.07.21-.17.41-.26.62-.18.4-.36.79-.55,1.18-.13.27-.22.57-.45.78-.18.16-.27.35-.24.53-.08.18-.13.33-.21.45-.05.07-.07.14-.06.22.05.32-.08.62-.07.94,0,.03-.04.07-.06.1.12.1.27.09.41.1.17.01.35-.03.53.05.16.08.37.07.55.08.15,0,.29.02.4.15Z"/>
      <path d="m53.26,89.58s.07-.07.1-.1h.96c.23.11.08.28.03.39-.05.12-.18.2-.23.26-.24.04-.41.07-.63.1-.07-.09-.16-.2-.24-.3v-.36Z"/>
    </g>
  </g>
</svg>