<?xml version="1.0" encoding="UTF-8"?>
<svg id="Layer_2" data-name="Layer 2" xmlns="http://www.w3.org/2000/svg" viewBox="0 0 149.02 101">
  <g id="Layer_1-2" data-name="Layer 1">
    <g>
      <path d="m102.2,45.84c-.07.13-.12.3-.22.39-.32.27-.66.53-1.01.77-1.28.86-2.56,1.7-3.85,2.55-.48.31-.96.63-1.45.91-1.55.9-3.1,1.8-4.66,2.66-.61.34-1.26.61-1.9.9-.27.12-.34.29-.25.58.22.7.31,1.42.62,2.11.3.67.45,1.42.68,2.12.06.2.16.38.23.57.27.77.51,1.54.8,2.3.77,2.04,1.47,4.11,2.4,6.08,1.06,2.24,2.05,4.52,3.09,6.77.24.53.61.99.86,1.52.1.21.15.57.04.74-.27.44-.67.8-1.22.86-.45.05-.87-.33-1.03-.82-.09-.31-.24-.61-.42-.88-.29-.44-.3-1.12,0-1.56.07-.1.1-.3.05-.41-.77-1.78-1.56-3.55-2.34-5.33-.53-1.21-1.08-2.41-1.56-3.64-.48-1.22-.88-2.46-1.32-3.69-.18-.51-.42-.99-.62-1.5-.16-.41-.29-.82-.42-1.24-.21-.64-.41-1.29-.61-1.94-.17-.55-.32-1.1-.49-1.64-.02-.08-.1-.19-.16-.19-.11,0-.25.04-.33.12-.09.09-.11.25-.2.36-.09.11-.23.18-.34.26-.04-.03-.08-.06-.12-.08-.38,1.44-.77,2.88-1.14,4.33-.25.97-.53,1.93-.71,2.91-.22,1.18-.39,2.38-.53,3.58-.15,1.26-.27,2.53-.37,3.8-.11,1.39-.2,2.77-.26,4.16-.04.92-.04,1.84-.03,2.76.01,1.54.02,3.08.09,4.62.07,1.64.17,3.28.34,4.92.11,1.02.24,2.05.64,3.02.28.67.75.98,1.45,1.08.96.14,1.73-.25,2.38-.84,1.48-1.35,2.71-2.93,3.87-4.56.38-.54.83-1.04,1.23-1.57,1.15-1.52,2.29-3.05,3.44-4.57.6-.79,1.21-1.56,1.81-2.34.67-.86,1.3-1.75,2.02-2.57.84-.94,1.39-2.07,2.28-2.97.78-.8,1.39-1.76,2.08-2.65.28-.36.59-.71.9-1.04,1.33-1.44,2.68-2.87,4.01-4.32,1.49-1.62,3.26-2.93,4.92-4.36,1.71-1.46,3.58-2.69,5.43-3.94,1.53-1.03,3.07-2.06,4.71-2.92,1.26-.66,2.59-1.12,3.96-1.49.31-.08.61-.22.91-.31.19-.06.39-.08.61-.12.04.31-.06.49-.3.59-1.26.5-2.53.97-3.77,1.5-.61.26-1.18.62-1.75.96-.77.46-1.52.95-2.27,1.43-.11.07-.22.12-.32.2-.82.64-1.64,1.3-2.47,1.92-.44.33-.93.59-1.37.91-.64.47-1.26.95-1.88,1.45-2.31,1.84-4.52,3.8-6.61,5.89-.6.6-1.22,1.19-1.8,1.81-.48.52-.91,1.09-1.37,1.64-1.02,1.23-2.06,2.44-3.05,3.69-.92,1.16-1.78,2.37-2.68,3.54-.87,1.13-1.77,2.22-2.63,3.36-.7.92-1.34,1.89-2.03,2.82-.77,1.05-1.54,2.09-2.32,3.12-.81,1.07-1.61,2.15-2.48,3.18-.85,1-1.71,2-2.68,2.87-.6.54-1.36.93-2.26.99-1.15.08-2.84-.91-3.19-2.23-.35-1.34-.56-2.7-.68-4.07-.12-1.42-.25-2.84-.29-4.26-.06-2.26-.04-4.52-.05-6.79,0-.86-.01-1.73.05-2.58.09-1.37.23-2.75.36-4.12.07-.79.2-1.57.26-2.36.09-1.33.36-2.62.7-3.89.12-.44.17-.9.25-1.35.01-.08.01-.16.03-.24.33-1.13.67-2.26,1-3.4.1-.33.19-.65.31-1.08-.31.1-.52.17-.73.24-.88.26-1.75.55-2.63.77-1.63.41-3.3.51-4.96.42-.9-.05-1.79-.24-2.69-.36-.68-.09-1.37-.15-2.06-.23-.26-.03-.53-.06-.79-.11-.24-.05-.4,0-.47.26-.13.44-.32.86-.39,1.31-.1.64-.44,1.07-.99,1.36-.19.1-.4.22-.59.21-.68-.03-1.07-.82-.71-1.44.22-.39.51-.73.75-1.11.12-.19.18-.42.3-.7-.24,0-.37,0-.51,0-1.45.07-2.54.73-3.2,2.03-.51,1-1.03,2-1.49,3.03-.26.58-.38,1.22-.6,1.82-.61,1.64-1.3,3.24-2.27,4.7-.7,1.05-1.7,1.66-2.93,1.97-.79.21-1.58.22-2.35.06-.79-.16-1.51-.54-2.16-1.03-1.03-.78-1.87-1.73-2.51-2.84-.46-.79-.84-1.63-1.21-2.48-.62-1.42-1.22-2.85-1.78-4.3-.27-.69-.43-1.42-.64-2.13-.03-.11-.05-.23-.11-.33-.49-.8-.65-1.71-.9-2.59-.33-1.16-.57-2.33-1.05-3.45-.17-.41-.21-.87-.31-1.3-.08-.36-.12-.74-.26-1.07-.43-.97-.53-2.01-.74-3.03-.02-.09-.09-.17-.14-.25-.03,0-.06.01-.09.02,0,.19-.03.39,0,.58.16.94.33,1.87.51,2.81.2,1.08.4,2.16.61,3.24.1.51.21,1.01.34,1.51.46,1.8.96,3.6,1.37,5.41.29,1.26.49,2.55.71,3.82.14.78.22,1.56.37,2.34.25,1.3.54,2.6.81,3.9,0,.04.02.09.02.14.14,1.73.23,3.46.43,5.18.17,1.46-.03,2.89-.19,4.33-.13,1.14-.33,2.27-.85,3.32-.64,1.28-2.18,1.99-3.56,1.61-.29-.08-.58-.12-.87-.19-.69-.18-1.15-.69-1.66-1.14-1.56-1.39-2.36-3.25-3.17-5.11-.33-.75-.67-1.49-.96-2.25-.55-1.43-1.1-2.87-1.59-4.33-.5-1.47-.94-2.95-1.36-4.44-.24-.83-.4-1.69-.61-2.53-.14-.52-.33-1.02-.48-1.54-.1-.33-.16-.67-.24-1-.39-1.54-.82-3.08-1.17-4.63-.33-1.45-.58-2.93-.84-4.39-.23-1.29-.44-2.58-.66-3.86-.18-1.07-.3-2.16-.57-3.21-.5-1.91-.55-3.89-.84-5.82-.24-1.62-.45-3.25-.65-4.88-.15-1.24-.15-2.51-.41-3.73-.44-2.04-.51-4.12-.82-6.18-.27-1.79-.35-3.61-.49-5.42-.09-1.13-.15-2.27-.16-3.41-.01-.88.07-1.77.11-2.65.02-.38.34-.78.69-.89.21-.06.39-.05.47.19.05.15.14.3.15.45.07,1.46.14,2.91.19,4.37.02.65-.01,1.31.03,1.96.03.4.22.79.24,1.19.05.92.06,1.84.06,2.75,0,.6-.11,1.22-.05,1.81.22,2.15.51,4.28.74,6.43.2,1.84.36,3.68.56,5.52.1.88.25,1.75.37,2.63.27,1.99.52,3.99.82,5.98.22,1.46.5,2.92.78,4.37.32,1.7.65,3.41,1,5.1.14.7.35,1.38.52,2.07.37,1.53.76,3.05,1.1,4.58.37,1.62.73,3.24,1.31,4.81.34.93.56,1.91.85,2.87.12.38.26.76.39,1.14.39,1.16.76,2.33,1.18,3.48.25.69.53,1.37.86,2.03.68,1.35,1.37,2.7,2.1,4.03.43.78,1.05,1.42,1.78,1.94.81.57,1.69.84,2.65.4.5-.23.82-.66,1.06-1.14.46-.94.67-1.96.76-2.99.08-.91.07-1.84.1-2.75.06-1.9-.15-3.78-.44-5.66-.07-.45-.2-.9-.27-1.35-.15-1.08-.24-2.17-.43-3.24-.21-1.15-.5-2.28-.75-3.42-.13-.58-.21-1.18-.34-1.76-.37-1.61-.77-3.21-1.12-4.83-.36-1.67-.7-3.35-1.02-5.03-.25-1.35-.47-2.71-.69-4.07-.27-1.7-.56-3.4-.78-5.11-.14-1.1-.18-2.22-.23-3.33-.02-.5.24-.74.73-.76.15,0,.34.08.44.19.12.12.21.31.26.48.23.76.59,1.47.69,2.29.15,1.13.38,2.26.65,3.37.32,1.3.77,2.57,1.07,3.88.19.82.58,1.57.65,2.44.08.88.48,1.74.74,2.61.12.41.21.82.32,1.23.13.47.28.94.41,1.42.09.33.14.68.26,1,.74,1.95,1.52,3.89,2.23,5.86.56,1.55,1.3,3.02,2.11,4.45.55.97,1.34,1.74,2.35,2.26.6.31,1.2.59,1.89.69,1.05.14,1.89-.24,2.65-.88,1.01-.85,1.52-2.04,2.03-3.2.92-2.08,1.75-4.2,2.64-6.29.44-1.02,1.1-1.9,2.01-2.54.69-.49,1.52-.69,2.37-.78.33-.04.67-.09,1-.05.62.07.89-.31,1.13-.76.45-.87.88-1.75,1.31-2.62.7-1.42,1.42-2.84,2.1-4.27.48-1.02.9-2.06,1.36-3.09.56-1.25,1.11-2.5,1.71-3.73.89-1.84,1.8-3.67,2.72-5.5.2-.39.45-.75.7-1.1.24-.34.27-.68.11-1.07-.71-1.77-1.41-3.54-2.13-5.31-.21-.52-.46-1.03-.66-1.55-.15-.4-.11-.81.11-1.19.23-.4.58-.5.99-.46.33.03.69.39.78.74.5,1.96,1.01,3.91,1.51,5.86.07.27.14.54.23.87.1-.09.17-.13.2-.18.57-.95,1.12-1.93,1.72-2.86.88-1.37,1.79-2.72,2.72-4.06.57-.82,1.21-1.58,1.82-2.37.62-.8,1.21-1.62,1.87-2.39,1.26-1.47,2.41-3.05,3.86-4.35.41-.37.84-.71,1.29-1.04.69-.51,1.66-.21,2,.58.49,1.16.48,2.4.55,3.62.06,1.13-.06,2.25-.24,3.36-.2,1.22-.35,2.46-.65,3.65-.37,1.49-.56,3.03-1.2,4.45-.72,1.59-1.12,3.28-1.67,4.92-.53,1.58-1.14,3.13-1.69,4.7-.45,1.27-.86,2.55-1.29,3.82-.08.23-.19.44-.28.67-.17.49-.33.98-.5,1.46-.54,1.5-1.06,3.01-1.63,4.5-.35.92-.19,1.78.12,2.65.1.29.28.17.44.09.57-.27,1.14-.54,1.71-.83,1.58-.79,3.17-1.58,4.73-2.4.82-.43,1.64-.88,2.39-1.42.43-.32.94-.41,1.37-.69.83-.53,1.7-1.01,2.56-1.49.2-.11.45-.14.67-.21.03.03.06.07.09.1Zm-15.02,3.09s.09,0,.14,0c.07-.17.15-.34.21-.52.12-.38.2-.78.33-1.16.33-.93.69-1.85,1.03-2.78.25-.69.44-1.4.7-2.09.32-.86.7-1.7,1-2.57.64-1.84,1.24-3.7,1.85-5.55.53-1.59,1.13-3.16,1.56-4.77.57-2.12,1.08-4.25,1.46-6.41.33-1.87.59-3.77.38-5.69-.05-.49-.15-.98-.29-1.45-.12-.41-.39-.45-.69-.17-.16.15-.33.29-.49.44-.52.47-1.09.89-1.56,1.41-.96,1.07-1.88,2.17-2.79,3.28-.59.73-1.13,1.51-1.7,2.25-.59.77-1.24,1.51-1.8,2.3-.78,1.11-1.51,2.24-2.23,3.39-.71,1.13-1.39,2.27-2.08,3.41-.16.27-.35.55-.08.88.07.08.02.24.04.37.02.18.02.37.08.54.42,1.07.87,2.12,1.27,3.19.45,1.21.86,2.44,1.27,3.67.3.89.57,1.79.83,2.69.48,1.64.94,3.29,1.41,4.93.04.14.11.27.16.4Zm-15.61,5.93c.28.03.62.05.95.11.49.08.96.21,1.45.27.82.11,1.64.22,2.47.25,1.19.04,2.39.06,3.58-.03.82-.06,1.62-.3,2.42-.51.98-.25,1.94-.55,2.9-.86.17-.06.33-.24.43-.41.1-.16.14-.36.19-.55.14-.56.3-1.11.4-1.68.14-.76-.24-1.44-.39-2.15-.18-.84-.48-1.65-.71-2.48-.14-.51-.26-1.02-.4-1.53-.28-.93-.57-1.87-.86-2.8-.17-.53-.33-1.07-.53-1.59-.19-.52-.42-1.02-.61-1.54-.55-1.53-1.09-3.07-1.64-4.61-.03-.1-.13-.17-.2-.25-.09.08-.2.15-.26.25-.41.78-.83,1.56-1.21,2.36-.74,1.54-1.47,3.09-2.19,4.65-.49,1.05-.96,2.11-1.44,3.17-.57,1.25-1.14,2.51-1.72,3.76-.28.61-.56,1.21-.85,1.81-.32.65-.6,1.32-.98,1.93-.31.5-.48,1.03-.6,1.59-.06.26-.12.51-.2.82Z"/>
      <path d="m53.84,89.53c.06,0,.12-.03.17-.01.12.03.23.08.35.13-.07.13-.11.31-.23.39-.33.22-.66.16-.78-.08-.15-.3-.05-.45.28-.44.07,0,.14.01.21.02Z"/>
    </g>
  </g>
</svg>